<svg xmlns="http://www.w3.org/2000/svg" width="52.732" height="24.443" viewBox="0 0 52.732 24.443"><defs><style>.a{fill:#009dff;}.b{fill:#0076ff;}.c{fill:#532bff;}.d{fill:#a121ff;}.e{fill:#0576ff;}</style></defs><g transform="translate(-151.911 -355.534)"><g transform="translate(151.911 355.534)"><g transform="translate(0 0)"><path class="a" d="M2185.883,695.6c3.734.647,4.84,4.83,9.04,4.835a6.521,6.521,0,0,0,4.477-1.974,12.22,12.22,0,0,0-13.517-2.861Z" transform="translate(-2178.338 -694.672)"/><path class="b" d="M2178.662,708.017a12.287,12.287,0,0,0,.077,1.372c2.059-1.48,3.576-3.495,6.5-3.481a5.433,5.433,0,0,1,1.969.362,4.073,4.073,0,1,1,6.758,4.414,5.727,5.727,0,0,0,1.286.145c3.662,0,5.006-3.191,7.745-4.459a12.131,12.131,0,0,0-3.269-6.785,6.522,6.522,0,0,1-4.477,1.974c-4.2,0-5.305-4.187-9.04-4.834h0A12.228,12.228,0,0,0,2178.662,708.017Z" transform="translate(-2178.662 -695.795)"/><path class="c" d="M2178.412,720.494a12.142,12.142,0,0,0,2.811,6.509,6.293,6.293,0,0,1,3.911-1.422c4.509.018,5.45,4.83,9.891,4.916a12.224,12.224,0,0,0,7.754-11.376,11.63,11.63,0,0,0-.113-1.648c-2.739,1.267-4.083,4.459-7.745,4.459a5.723,5.723,0,0,1-1.285-.145,4.074,4.074,0,0,1-6.759-4.414,5.427,5.427,0,0,0-1.968-.362C2181.988,717,2180.471,719.014,2178.412,720.494Z" transform="translate(-2178.335 -706.901)"/><path class="d" d="M2195.541,737.364a12.208,12.208,0,0,0,13.8,3.495c-4.441-.086-5.383-4.9-9.89-4.916A6.292,6.292,0,0,0,2195.541,737.364Z" transform="translate(-2192.654 -717.262)"/><path class="a" d="M2199.4,695.6c-3.734.647-4.839,4.83-9.04,4.835a6.522,6.522,0,0,1-4.477-1.974A12.22,12.22,0,0,1,2199.4,695.6Z" transform="translate(-2154.214 -694.672)"/><path class="e" d="M2202.993,708.017a12.4,12.4,0,0,1-.077,1.372c-2.06-1.48-3.576-3.495-6.5-3.481a5.431,5.431,0,0,0-1.969.362,4.073,4.073,0,1,0-6.758,4.414,5.727,5.727,0,0,1-1.286.145c-3.662,0-5.006-3.191-7.745-4.459a12.127,12.127,0,0,1,3.268-6.785,6.523,6.523,0,0,0,4.477,1.974c4.2,0,5.305-4.187,9.04-4.834h0A12.227,12.227,0,0,1,2202.993,708.017Z" transform="translate(-2150.261 -695.795)"/><path class="c" d="M2202.779,720.494a12.138,12.138,0,0,1-2.811,6.509,6.293,6.293,0,0,0-3.912-1.422c-4.508.018-5.45,4.83-9.891,4.916a12.223,12.223,0,0,1-7.754-11.376,11.559,11.559,0,0,1,.113-1.648c2.739,1.267,4.083,4.459,7.745,4.459a5.727,5.727,0,0,0,1.286-.145,4.073,4.073,0,0,0,6.759-4.414,5.431,5.431,0,0,1,1.969-.362C2199.2,717,2200.72,719.014,2202.779,720.494Z" transform="translate(-2150.125 -706.901)"/><path class="d" d="M2209.343,737.364a12.209,12.209,0,0,1-13.8,3.495c4.441-.086,5.383-4.9,9.891-4.916A6.293,6.293,0,0,1,2209.343,737.364Z" transform="translate(-2159.499 -717.262)"/></g></g></g></svg>